<?xml version="1.0" encoding="UTF-8"?>
<!DOCTYPE svg PUBLIC "-//W3C//DTD SVG 1.1//EN" "http://www.w3.org/Graphics/SVG/1.1/DTD/svg11.dtd">
<svg xmlns="http://www.w3.org/2000/svg" version="1.1" width="2100px" height="1500px" style="shape-rendering:geometricPrecision; text-rendering:geometricPrecision; image-rendering:optimizeQuality; fill-rule:evenodd; clip-rule:evenodd" xmlns:xlink="http://www.w3.org/1999/xlink">
<g><path style="opacity:0.985" fill="#fefefe" d="M 222.5,332.5 C 270.742,329.019 304.242,349.353 323,393.5C 335.52,438.57 323.02,474.737 285.5,502C 259.087,516.896 231.42,519.563 202.5,510C 170.351,496.179 151.184,472.012 145,437.5C 141.035,389.235 161.202,355.735 205.5,337C 211.253,335.314 216.919,333.814 222.5,332.5 Z"/></g>
<g><path style="opacity:1" fill="#328f90" d="M 206.5,352.5 C 216.481,351.981 220.648,356.648 219,366.5C 212.508,373.425 206.508,373.092 201,365.5C 199.571,359.7 201.404,355.367 206.5,352.5 Z"/></g>
<g><path style="opacity:1" fill="#f4f9f8" d="M 207.5,353.5 C 216.365,353.847 219.532,358.181 217,366.5C 211.186,372.205 206.186,371.538 202,364.5C 201.176,359.482 203.009,355.815 207.5,353.5 Z"/></g>
<g><path style="opacity:1" fill="#a9c9c1" d="M 206.5,360.5 C 205.427,359.749 205.26,358.749 206,357.5C 209.258,354.554 212.091,354.888 214.5,358.5C 213.89,359.505 213.224,359.338 212.5,358C 210.833,357.333 209.167,357.333 207.5,358C 206.748,358.671 206.414,359.504 206.5,360.5 Z"/></g>
<g><path style="opacity:1" fill="#b1cec6" d="M 206.5,360.5 C 208.801,361.06 211.134,361.56 213.5,362C 215.889,365.227 214.889,367.394 210.5,368.5C 208.483,367.826 206.817,366.659 205.5,365C 205.833,364.833 206.167,364.667 206.5,364.5C 208.962,367.053 211.295,367.053 213.5,364.5C 211.133,363.169 208.8,361.836 206.5,360.5 Z"/></g>
<g><path style="opacity:1" fill="#e7e8e8" d="M 236.5,372.5 C 255.004,371.172 273.671,371.172 292.5,372.5C 292.376,373.107 292.043,373.44 291.5,373.5C 273.341,372.503 255.008,372.17 236.5,372.5 Z"/></g>
<g><path style="opacity:1" fill="#0b8c93" d="M 236.5,372.5 C 255.008,372.17 273.341,372.503 291.5,373.5C 289.312,378.727 287.312,384.061 285.5,389.5C 269.18,390.499 252.847,390.833 236.5,390.5C 236.5,384.5 236.5,378.5 236.5,372.5 Z"/></g>
<g><path style="opacity:1" fill="#108d94" d="M 277.5,417.5 C 258.56,419.141 239.56,420.141 220.5,420.5C 219.833,431.341 219.167,442.341 218.5,453.5C 213.574,455.467 208.574,457.134 203.5,458.5C 202.502,432.005 202.169,405.339 202.5,378.5C 207.727,376.312 213.061,374.312 218.5,372.5C 219.498,382.144 219.832,391.81 219.5,401.5C 240.167,401.5 260.833,401.5 281.5,401.5C 280.171,406.816 278.838,412.149 277.5,417.5 Z"/></g>
<g><path style="opacity:1" fill="#82bbb9" d="M 202.5,378.5 C 202.169,405.339 202.502,432.005 203.5,458.5C 203.44,459.043 203.107,459.376 202.5,459.5C 201.171,432.336 201.171,405.336 202.5,378.5 Z"/></g>
<g><path style="opacity:0.527" fill="#000000" d="M 489.5,416.5 C 490.5,416.5 491.5,416.5 492.5,416.5C 492.845,419.488 491.512,420.821 488.5,420.5C 487.5,420.333 486.5,420.167 485.5,420C 486.731,418.595 488.064,417.429 489.5,416.5 Z"/></g>
<g><path style="opacity:0.649" fill="#000000" d="M 350.5,417.5 C 353.187,417.336 355.854,417.503 358.5,418C 356.715,419.163 354.715,419.83 352.5,420C 348.981,422.685 348.648,425.685 351.5,429C 354.043,429.14 356.377,429.806 358.5,431C 347.102,431.893 344.436,427.393 350.5,417.5 Z"/></g>
<g><path style="opacity:0.838" fill="#000000" d="M 360.5,417.5 C 362.423,421.029 363.089,425.029 362.5,429.5C 364.604,429.201 366.604,429.534 368.5,430.5C 365.914,431.48 363.247,431.813 360.5,431.5C 360.5,426.833 360.5,422.167 360.5,417.5 Z"/></g>
<g><path style="opacity:0.754" fill="#000000" d="M 369.5,417.5 C 372.119,417.232 374.619,417.565 377,418.5C 377.743,420.441 377.576,422.274 376.5,424C 378.648,426.075 378.982,428.408 377.5,431C 374.854,431.497 372.187,431.664 369.5,431.5C 369.5,426.833 369.5,422.167 369.5,417.5 Z M 371.5,419.5 C 376.116,420.041 376.449,421.374 372.5,423.5C 371.571,422.311 371.238,420.978 371.5,419.5 Z M 371.5,425.5 C 373.429,425.231 375.095,425.731 376.5,427C 375.383,428.892 373.716,429.725 371.5,429.5C 371.5,428.167 371.5,426.833 371.5,425.5 Z"/></g>
<g><path style="opacity:0.767" fill="#000000" d="M 384.5,417.5 C 388.226,417.177 391.893,417.511 395.5,418.5C 395.192,419.308 394.692,419.975 394,420.5C 391.619,419.565 389.119,419.232 386.5,419.5C 386.5,420.833 386.5,422.167 386.5,423.5C 393.167,424.167 393.167,424.833 386.5,425.5C 386.799,427.604 386.466,429.604 385.5,431.5C 384.507,426.88 384.173,422.214 384.5,417.5 Z"/></g>
<g><path style="opacity:0.851" fill="#000000" d="M 434.5,417.5 C 436.176,418.183 436.843,419.517 436.5,421.5C 441.239,420.407 443.239,422.24 442.5,427C 442.167,428.5 441.833,430 441.5,431.5C 439.5,420.833 437.5,420.833 435.5,431.5C 434.507,426.88 434.173,422.214 434.5,417.5 Z"/></g>
<g><path style="opacity:0.548" fill="#000000" d="M 458.5,418.5 C 460.456,417.199 462.123,417.699 463.5,420C 461.505,420.613 459.838,420.113 458.5,418.5 Z"/></g>
<g><path style="opacity:0.746" fill="#000000" d="M 472.5,417.5 C 483.176,416.519 486.176,420.852 481.5,430.5C 478.579,431.407 475.579,431.74 472.5,431.5C 472.84,428.856 472.173,426.523 470.5,424.5C 472.173,422.477 472.84,420.144 472.5,417.5 Z M 474.5,419.5 C 481.252,419.834 482.919,423 479.5,429C 477.866,429.494 476.199,429.66 474.5,429.5C 474.5,428.167 474.5,426.833 474.5,425.5C 479.833,424.833 479.833,424.167 474.5,423.5C 474.5,422.167 474.5,420.833 474.5,419.5 Z"/></g>
<g><path style="opacity:0.583" fill="#000000" d="M 538.5,418.5 C 540.093,417.133 541.426,417.466 542.5,419.5C 542.167,419.833 541.833,420.167 541.5,420.5C 540.482,419.807 539.482,419.141 538.5,418.5 Z"/></g>
<g><path style="opacity:0.562" fill="#000000" d="M 547.5,417.5 C 550.548,417.494 551.048,418.494 549,420.5C 547.961,419.756 547.461,418.756 547.5,417.5 Z"/></g>
<g><path style="opacity:0.856" fill="#000000" d="M 565.5,417.5 C 567.176,418.183 567.843,419.517 567.5,421.5C 572.239,420.407 574.239,422.24 573.5,427C 573.167,428.5 572.833,430 572.5,431.5C 570.5,420.833 568.5,420.833 566.5,431.5C 565.507,426.88 565.173,422.214 565.5,417.5 Z"/></g>
<g><path style="opacity:0.592" fill="#000000" d="M 577.5,417.5 C 581.102,417.678 581.102,418.678 577.5,420.5C 576.438,419.575 576.438,418.575 577.5,417.5 Z"/></g>
<g><path style="opacity:0.851" fill="#000000" d="M 592.5,417.5 C 594.176,418.183 594.843,419.517 594.5,421.5C 599.239,420.407 601.239,422.24 600.5,427C 600.167,428.5 599.833,430 599.5,431.5C 597.5,420.833 595.5,420.833 593.5,431.5C 592.507,426.88 592.173,422.214 592.5,417.5 Z"/></g>
<g><path style="opacity:0.906" fill="#000000" d="M 607.5,417.5 C 609.308,418.918 609.975,420.918 609.5,423.5C 611.5,423.5 613.5,423.5 615.5,423.5C 615.201,421.396 615.534,419.396 616.5,417.5C 617.833,422.167 617.833,426.833 616.5,431.5C 615.534,429.604 615.201,427.604 615.5,425.5C 613.5,425.5 611.5,425.5 609.5,425.5C 609.799,427.604 609.466,429.604 608.5,431.5C 607.507,426.88 607.173,422.214 607.5,417.5 Z"/></g>
<g><path style="opacity:0.823" fill="#000000" d="M 631.5,417.5 C 633.833,417.5 636.167,417.5 638.5,417.5C 638.827,422.214 638.493,426.88 637.5,431.5C 636.509,427.555 636.176,423.555 636.5,419.5C 632.044,419.896 631.71,420.896 635.5,422.5C 634.675,423.386 633.675,423.719 632.5,423.5C 632.813,426.247 632.48,428.914 631.5,431.5C 629.628,426.673 629.628,422.006 631.5,417.5 Z"/></g>
<g><path style="opacity:0.562" fill="#000000" d="M 640.5,417.5 C 643.548,417.494 644.048,418.494 642,420.5C 640.961,419.756 640.461,418.756 640.5,417.5 Z"/></g>
<g><path style="opacity:0.757" fill="#000000" d="M 414.5,423.5 C 413.5,423.5 412.5,423.5 411.5,423.5C 411.16,426.144 411.827,428.477 413.5,430.5C 412.311,431.429 410.978,431.762 409.5,431.5C 409.927,428.212 409.26,425.212 407.5,422.5C 408.646,421.281 409.646,419.948 410.5,418.5C 411.386,419.325 411.719,420.325 411.5,421.5C 413.179,421.285 414.179,421.952 414.5,423.5 Z"/></g>
<g><path style="opacity:0.757" fill="#000000" d="M 510.5,418.5 C 512.048,418.821 512.715,419.821 512.5,421.5C 516.5,422.167 516.5,422.833 512.5,423.5C 512.16,426.144 512.827,428.477 514.5,430.5C 513.311,431.429 511.978,431.762 510.5,431.5C 510.927,428.212 510.26,425.212 508.5,422.5C 509.853,421.476 510.52,420.143 510.5,418.5 Z"/></g>
<g><path style="opacity:0.808" fill="#000000" d="M 525.5,418.5 C 526.124,418.917 526.457,419.584 526.5,420.5C 524.838,423.979 524.172,427.646 524.5,431.5C 522.143,431.663 519.81,431.497 517.5,431C 516.213,427.875 516.213,424.709 517.5,421.5C 518.314,423.766 518.814,426.1 519,428.5C 519.718,429.451 520.551,429.617 521.5,429C 522.065,425.18 523.399,421.68 525.5,418.5 Z"/></g>
<g><path style="opacity:0.757" fill="#000000" d="M 532.5,418.5 C 534.048,418.821 534.715,419.821 534.5,421.5C 538.5,422.167 538.5,422.833 534.5,423.5C 534.16,426.144 534.827,428.477 536.5,430.5C 535.311,431.429 533.978,431.762 532.5,431.5C 532.927,428.212 532.26,425.212 530.5,422.5C 531.853,421.476 532.52,420.143 532.5,418.5 Z"/></g>
<g><path style="opacity:0.757" fill="#000000" d="M 646.5,418.5 C 648.048,418.821 648.715,419.821 648.5,421.5C 652.5,422.167 652.5,422.833 648.5,423.5C 648.16,426.144 648.827,428.477 650.5,430.5C 649.311,431.429 647.978,431.762 646.5,431.5C 646.927,428.212 646.26,425.212 644.5,422.5C 645.853,421.476 646.52,420.143 646.5,418.5 Z"/></g>
<g><path style="opacity:1" fill="#50a3a6" d="M 277.5,417.5 C 277.5,418.5 277.5,419.5 277.5,420.5C 258.5,420.5 239.5,420.5 220.5,420.5C 239.56,420.141 258.56,419.141 277.5,417.5 Z"/></g>
<g><path style="opacity:0.933" fill="#000000" d="M 393.5,421.5 C 394.777,422.694 395.444,424.36 395.5,426.5C 395.167,428.167 394.833,429.833 394.5,431.5C 393.513,428.232 393.18,424.898 393.5,421.5 Z"/></g>
<g><path style="opacity:0.835" fill="#000000" d="M 398.5,421.5 C 401.119,421.232 403.619,421.565 406,422.5C 406.821,425.554 406.655,428.554 405.5,431.5C 403.5,420.833 401.5,420.833 399.5,431.5C 398.513,428.232 398.18,424.898 398.5,421.5 Z"/></g>
<g><path style="opacity:0.669" fill="#000000" d="M 414.5,423.5 C 416.898,421.435 419.565,421.102 422.5,422.5C 423.309,424.071 423.643,425.738 423.5,427.5C 421.396,427.201 419.396,427.534 417.5,428.5C 425.55,431.07 425.217,431.903 416.5,431C 414.722,428.865 414.055,426.365 414.5,423.5 Z M 417.5,423.5 C 419.103,423.312 420.437,423.812 421.5,425C 419.537,425.844 418.204,425.344 417.5,423.5 Z"/></g>
<g><path style="opacity:0.683" fill="#000000" d="M 426.5,421.5 C 433.662,421.613 433.995,422.613 427.5,424.5C 426.167,425.833 426.167,427.167 427.5,428.5C 429.167,429.167 430.833,429.833 432.5,430.5C 424.414,431.853 422.414,428.853 426.5,421.5 Z"/></g>
<g><path style="opacity:0.695" fill="#000000" d="M 448.5,421.5 C 449.5,421.5 450.5,421.5 451.5,421.5C 452.075,429.919 453.242,430.252 455,422.5C 456.156,421.007 456.99,421.174 457.5,423C 453.552,434.264 450.552,433.764 448.5,421.5 Z"/></g>
<g><path style="opacity:0.719" fill="#000000" d="M 458.5,421.5 C 460.792,421.244 462.959,421.577 465,422.5C 465.498,425.482 465.665,428.482 465.5,431.5C 462.881,431.768 460.381,431.435 458,430.5C 457.219,429.056 457.386,427.723 458.5,426.5C 460.115,425.846 461.782,425.346 463.5,425C 461.404,424.263 459.737,423.097 458.5,421.5 Z M 460.5,427.5 C 464.276,427.469 464.443,428.136 461,429.5C 459.316,429.317 459.15,428.65 460.5,427.5 Z"/></g>
<g><path style="opacity:0.719" fill="#000000" d="M 485.5,421.5 C 487.792,421.244 489.959,421.577 492,422.5C 492.498,425.482 492.665,428.482 492.5,431.5C 489.881,431.768 487.381,431.435 485,430.5C 484.219,429.056 484.386,427.723 485.5,426.5C 487.115,425.846 488.782,425.346 490.5,425C 488.404,424.263 486.737,423.097 485.5,421.5 Z M 487.5,427.5 C 491.276,427.469 491.443,428.136 488,429.5C 486.316,429.317 486.15,428.65 487.5,427.5 Z"/></g>
<g><path style="opacity:0.839" fill="#000000" d="M 495.5,421.5 C 496.933,424.038 498.266,426.705 499.5,429.5C 500.086,429.291 500.586,428.957 501,428.5C 501.186,426.1 501.686,423.766 502.5,421.5C 503.487,424.768 503.82,428.102 503.5,431.5C 500.881,431.768 498.381,431.435 496,430.5C 495.502,427.518 495.335,424.518 495.5,421.5 Z"/></g>
<g><path style="opacity:0.701" fill="#000000" d="M 538.5,421.5 C 540.792,421.244 542.959,421.577 545,422.5C 545.498,425.482 545.665,428.482 545.5,431.5C 542.881,431.768 540.381,431.435 538,430.5C 537.084,426.221 538.917,424.388 543.5,425C 541.404,424.263 539.737,423.097 538.5,421.5 Z M 540.5,427.5 C 544.276,427.469 544.443,428.136 541,429.5C 539.316,429.317 539.15,428.65 540.5,427.5 Z"/></g>
<g><path style="opacity:0.933" fill="#000000" d="M 547.5,421.5 C 548.777,422.694 549.444,424.36 549.5,426.5C 549.167,428.167 548.833,429.833 548.5,431.5C 547.513,428.232 547.18,424.898 547.5,421.5 Z"/></g>
<g><path style="opacity:0.683" fill="#000000" d="M 557.5,421.5 C 564.662,421.613 564.995,422.613 558.5,424.5C 557.167,425.833 557.167,427.167 558.5,428.5C 560.167,429.167 561.833,429.833 563.5,430.5C 555.414,431.853 553.414,428.853 557.5,421.5 Z"/></g>
<g><path style="opacity:0.933" fill="#000000" d="M 576.5,421.5 C 577.777,422.694 578.444,424.36 578.5,426.5C 578.167,428.167 577.833,429.833 577.5,431.5C 576.513,428.232 576.18,424.898 576.5,421.5 Z"/></g>
<g><path style="opacity:0.835" fill="#000000" d="M 581.5,421.5 C 584.119,421.232 586.619,421.565 589,422.5C 589.821,425.554 589.655,428.554 588.5,431.5C 586.5,420.833 584.5,420.833 582.5,431.5C 581.513,428.232 581.18,424.898 581.5,421.5 Z"/></g>
<g><path style="opacity:0.839" fill="#000000" d="M 620.5,421.5 C 621.933,424.038 623.266,426.705 624.5,429.5C 625.086,429.291 625.586,428.957 626,428.5C 626.186,426.1 626.686,423.766 627.5,421.5C 628.487,424.768 628.82,428.102 628.5,431.5C 625.881,431.768 623.381,431.435 621,430.5C 620.502,427.518 620.335,424.518 620.5,421.5 Z"/></g>
<g><path style="opacity:0.933" fill="#000000" d="M 641.5,421.5 C 642.777,422.694 643.444,424.36 643.5,426.5C 643.167,428.167 642.833,429.833 642.5,431.5C 641.513,428.232 641.18,424.898 641.5,421.5 Z"/></g>
<g><path style="opacity:1" fill="#128d93" d="M 236.5,426.5 C 242.5,426.5 248.5,426.5 254.5,426.5C 254.5,435.5 254.5,444.5 254.5,453.5C 248.5,455.167 242.5,456.833 236.5,458.5C 236.5,447.833 236.5,437.167 236.5,426.5 Z"/></g>
<g><path style="opacity:1" fill="#d2d2d2" d="M 216.5,471.5 C 217.75,471.577 218.583,472.244 219,473.5C 219.965,471.74 221.132,471.406 222.5,472.5C 221.975,473.192 221.308,473.692 220.5,474C 222.108,474.658 223.275,474.158 224,472.5C 225.351,472.446 226.518,472.946 227.5,474C 225.744,474.068 224.077,474.902 222.5,476.5C 220.971,476.471 219.804,475.804 219,474.5C 218.692,475.308 218.192,475.975 217.5,476.5C 216.548,474.955 216.215,473.288 216.5,471.5 Z"/></g>
<g><path style="opacity:1" fill="#d3d3d3" d="M 238.5,471.5 C 241.389,471.999 242.056,473.499 240.5,476C 237.852,476.099 235.352,476.265 233,476.5C 229.801,476.036 229.134,474.703 231,472.5C 231.308,473.308 231.808,473.975 232.5,474.5C 234.427,473.138 236.427,472.138 238.5,471.5 Z"/></g>
<g><path style="opacity:1" fill="#d3d3d3" d="M 275.5,471.5 C 278.998,471.565 279.498,472.899 277,475.5C 276.667,474.833 276.333,474.167 276,473.5C 275.418,476.668 274.418,477.001 273,474.5C 272.667,474.833 272.333,475.167 272,475.5C 271.517,474.552 271.351,473.552 271.5,472.5C 273.099,472.768 274.432,472.434 275.5,471.5 Z"/></g>
<g><path style="opacity:1" fill="#d6d6d6" d="M 204.5,471.5 C 207.044,471.104 209.211,471.771 211,473.5C 212.153,471.503 213.653,471.17 215.5,472.5C 214.817,475.461 213.984,475.795 213,473.5C 212.418,476.668 211.418,477.001 210,474.5C 208.667,477.167 207.333,477.167 206,474.5C 205.586,474.957 205.086,475.291 204.5,475.5C 203.374,474.192 203.374,472.858 204.5,471.5 Z"/></g>
<g><path style="opacity:1" fill="#cacaca" d="M 259.5,471.5 C 261.993,471.329 263.826,472.329 265,474.5C 266.049,472.893 267.549,472.227 269.5,472.5C 269.906,474.109 269.906,475.443 269.5,476.5C 266.655,476.167 264.155,475.167 262,473.5C 261.667,474.167 261.333,474.833 261,475.5C 260.209,474.255 259.709,472.922 259.5,471.5 Z"/></g>
<g><path style="opacity:1" fill="#d0d0d0" d="M 292.5,471.5 C 294.213,472.635 294.88,474.302 294.5,476.5C 292.239,475.591 290.072,475.258 288,475.5C 287.42,472.453 287.753,472.119 289,474.5C 289.985,473.186 291.152,472.186 292.5,471.5 Z"/></g>
<g><path style="opacity:1" fill="#cdcdcd" d="M 191.5,471.5 C 192.434,472.568 192.768,473.901 192.5,475.5C 189.498,476.928 186.665,476.595 184,474.5C 183.111,475.888 182.611,475.722 182.5,474C 182.667,473.5 182.833,473 183,472.5C 183.85,473.424 184.85,473.424 186,472.5C 186.945,472.905 187.612,473.572 188,474.5C 188.985,473.186 190.152,472.186 191.5,471.5 Z"/></g>
<g><path style="opacity:1" fill="#cecece" d="M 253.5,471.5 C 254.649,471.791 255.316,472.624 255.5,474C 254.669,477.108 253.836,476.941 253,473.5C 252.085,474.328 251.419,475.328 251,476.5C 250.374,474.009 249.541,474.009 248.5,476.5C 247.808,475.975 247.308,475.308 247,474.5C 246.29,475.973 245.124,476.64 243.5,476.5C 243.5,475.167 243.5,473.833 243.5,472.5C 246.089,473.438 248.589,473.771 251,473.5C 251.995,472.934 252.828,472.267 253.5,471.5 Z"/></g>
</svg>
